<svg
 xmlns="http://www.w3.org/2000/svg"
 width="106px" height="106px">
<path fill-rule="evenodd"  fill="rgb(199, 199, 199)"
 d="M63.567,52.803 C65.261,42.928 67.941,33.195 71.608,23.602 C73.887,17.640 76.526,11.985 78.838,7.387 C71.110,2.905 62.141,0.326 52.563,0.326 C48.907,0.326 45.338,0.704 41.891,1.415 C45.993,8.055 51.040,16.938 54.680,25.718 C59.477,37.286 62.439,46.315 63.567,52.803 Z"/>
<path fill-rule="evenodd"  fill="rgb(201, 170, 98)"
 d="M72.877,59.363 C68.979,77.950 69.231,93.250 70.004,102.300 C90.411,95.109 105.041,75.669 105.041,52.804 C105.041,38.748 99.504,25.995 90.506,16.576 C89.180,18.143 78.811,31.079 72.877,59.363 Z"/>
<path fill-rule="evenodd"  fill="rgb(255, 255, 255)"
 d="M72.877,59.363 C78.811,31.079 89.180,18.143 90.506,16.576 C87.082,12.989 83.157,9.890 78.838,7.387 C76.526,11.985 73.887,17.640 71.608,23.602 C67.941,33.195 65.261,42.928 63.567,52.803 C62.439,46.315 59.477,37.286 54.680,25.718 C51.040,16.938 45.993,8.055 41.891,1.415 C37.000,2.426 32.364,4.124 28.075,6.392 L27.594,7.522 C43.394,27.553 52.986,44.904 56.372,59.575 C59.758,74.246 60.747,89.198 59.336,104.434 L59.360,104.827 C63.041,104.351 66.604,103.498 70.004,102.300 C69.231,93.250 68.979,77.950 72.877,59.363 Z"/>
<path fill-rule="evenodd"  fill="rgb(255, 255, 255)"
 d="M30.135,47.989 C38.034,60.578 42.547,71.776 43.676,81.581 C39.162,80.735 35.212,78.901 31.827,76.079 C28.441,73.258 25.902,70.014 24.209,66.346 L13.206,66.769 C17.720,76.080 23.363,82.851 30.135,87.082 C36.905,91.315 44.381,93.008 52.563,92.161 C54.821,83.697 51.153,68.038 41.561,45.186 C34.856,29.212 26.038,19.125 18.532,12.900 C14.930,15.974 11.754,19.524 9.092,23.457 C15.346,29.134 23.680,37.703 30.135,47.989 Z"/>
<path fill-rule="evenodd"  fill="rgb(201, 170, 98)"
 d="M56.372,59.575 C50.299,36.276 40.706,18.925 27.594,7.522 L28.075,6.392 C24.647,8.204 21.457,10.405 18.532,12.900 C26.311,20.449 35.147,32.213 41.561,45.186 C50.711,63.696 54.378,79.354 52.563,92.161 C44.381,93.008 36.905,91.315 30.135,87.082 C23.363,82.851 17.720,76.080 13.206,66.769 L24.209,66.346 C25.902,70.014 28.441,73.258 31.827,76.079 C35.212,78.901 38.587,80.594 41.952,81.158 C41.911,72.526 37.972,61.470 30.135,47.989 C24.030,37.490 15.346,29.134 9.092,23.457 C3.420,31.835 0.086,41.923 0.086,52.804 C0.086,81.786 23.581,105.280 52.563,105.280 C54.870,105.280 57.133,105.116 59.360,104.827 L59.336,104.434 C61.159,89.097 60.171,74.144 56.372,59.575 Z"/>
</svg>